<svg xmlns="http://www.w3.org/2000/svg" xmlns:xlink="http://www.w3.org/1999/xlink" width="500" zoomAndPan="magnify" viewBox="0 0 375 374.999991" height="500" preserveAspectRatio="xMidYMid meet" version="1.0"><defs><g/><clipPath id="7b6e4a148e"><path d="M 105.898438 112.5 L 245.398438 112.5 L 245.398438 262.5 L 105.898438 262.5 Z M 105.898438 112.5 " clip-rule="nonzero"/></clipPath></defs><rect x="-37.5" width="450" fill="#ffffff" y="-37.499999" height="449.999989" fill-opacity="1"/><rect x="-37.5" width="450" fill="#ffffff" y="-37.499999" height="449.999989" fill-opacity="1"/><rect x="-37.5" width="450" fill="#efecec" y="-37.499999" height="449.999989" fill-opacity="1"/><g clip-path="url(#7b6e4a148e)"><path fill="#0a0c06" d="M 206.667969 262.503906 L 245.347656 262.503906 L 208.601562 208.933594 C 215.011719 206.574219 220.632812 203.324219 225.46875 199.109375 C 230.269531 194.929688 234.03125 189.789062 236.714844 183.679688 C 239.4375 177.574219 240.796875 170.5 240.832031 162.429688 L 240.832031 162 C 240.832031 154.894531 239.722656 148.464844 237.535156 142.679688 C 235.355469 136.894531 232.128906 131.929688 227.941406 127.714844 C 223 122.75 216.84375 118.984375 209.496094 116.390625 C 202.164062 113.804688 193.664062 112.5 184.105469 112.5 L 105.949219 112.5 L 125.945312 142.285156 L 181.3125 142.285156 C 186.722656 142.285156 191.34375 143.109375 195.210938 144.714844 C 199.078125 146.324219 202.082031 148.679688 204.160156 151.859375 C 206.242188 155.039062 207.273438 159 207.3125 163.714844 L 207.3125 164.144531 C 207.3125 168.394531 206.3125 172.109375 204.304688 175.25 C 202.332031 178.429688 199.46875 180.894531 195.707031 182.679688 C 191.914062 184.433594 187.328125 185.324219 181.957031 185.359375 L 154.867188 185.359375 Z M 206.667969 262.503906 " fill-opacity="1" fill-rule="nonzero"/></g><g fill="#2b2b2b" fill-opacity="1"><g transform="translate(114.506577, 270.144182)"><g><path d="M -6.335938 -20.867188 C -6.335938 -20.742188 -6.304688 -20.636719 -6.226562 -20.542969 C -3.75 -16.933594 -0.960938 -10.410156 -0.960938 -8.242188 C -0.960938 -7.125 -1.285156 -6.675781 -2.074219 -6.675781 C -3.410156 -6.675781 -5.113281 -8.164062 -6.273438 -9.203125 C -7.636719 -10.410156 -8.351562 -10.503906 -8.351562 -9.511719 C -8.351562 -9.046875 -7.542969 -8.101562 -5.714844 -5.855469 C -2.867188 -2.324219 -1.519531 -0.339844 -1.519531 0.402344 C -1.519531 0.480469 -1.566406 0.574219 -1.734375 0.574219 C -2.570312 0.574219 -4.351562 -0.835938 -6.460938 -3.160156 L -6.445312 -3.144531 C -6.523438 -3.269531 -6.691406 -3.347656 -6.863281 -3.347656 C -7.15625 -3.347656 -7.421875 -3.082031 -7.421875 -2.789062 C -7.421875 -2.648438 -7.359375 -2.507812 -7.265625 -2.417969 C -4.910156 0.230469 -2.914062 1.6875 -1.640625 1.6875 C -0.882812 1.6875 -0.402344 1.207031 -0.402344 0.464844 C -0.402344 -0.789062 -3.128906 -4.367188 -4.632812 -6.242188 C -4.816406 -6.476562 -4.726562 -6.570312 -4.445312 -6.398438 C -3.515625 -5.824219 -2.820312 -5.5625 -2.074219 -5.5625 C -0.636719 -5.5625 0.15625 -6.507812 0.15625 -8.242188 C 0.15625 -10.75 -2.882812 -17.628906 -5.3125 -21.175781 C -5.421875 -21.332031 -5.59375 -21.425781 -5.777344 -21.425781 C -6.074219 -21.425781 -6.335938 -21.164062 -6.335938 -20.867188 Z M -6.335938 -20.867188 "/></g></g></g><g fill="#2b2b2b" fill-opacity="1"><g transform="translate(114.506577, 250.889522)"><g><path d="M -6.304688 -20.574219 C -6.304688 -20.464844 -6.273438 -20.339844 -6.210938 -20.261719 C -3.035156 -15.617188 -0.914062 -9.558594 -0.914062 -7.078125 C -0.914062 -5.949219 -1.238281 -5.515625 -2.03125 -5.515625 C -2.554688 -5.515625 -3.65625 -6.027344 -5.28125 -7.035156 C -5.128906 -7.125 -5.035156 -7.296875 -5.035156 -7.5 C -5.035156 -7.792969 -5.265625 -8.039062 -5.5625 -8.054688 C -5.917969 -8.085938 -6.273438 -8.039062 -6.613281 -7.886719 C -7.171875 -8.273438 -7.792969 -8.691406 -8.425781 -9.140625 C -18.171875 -19.597656 -33.152344 -34.050781 -35.074219 -34.050781 C -35.753906 -34.050781 -36.144531 -33.648438 -36.144531 -32.890625 C -36.144531 -30.269531 -19.582031 -15.785156 -9.417969 -8.550781 L -9.433594 -8.582031 C -8.832031 -7.933594 -8.257812 -7.3125 -7.714844 -6.738281 C -7.855469 -6.382812 -7.933594 -6.011719 -7.933594 -5.59375 C -7.933594 -2.386719 -3.75 2.585938 -1.023438 2.585938 C -0.339844 2.585938 0.078125 2.121094 0.078125 1.378906 C 0.078125 0.667969 -1.625 -1.59375 -4.878906 -5.265625 C -5.097656 -5.5 -5.003906 -5.640625 -4.726562 -5.484375 C -3.453125 -4.757812 -2.539062 -4.398438 -2.03125 -4.398438 C -0.589844 -4.398438 0.203125 -5.34375 0.203125 -7.078125 C 0.203125 -9.746094 -2 -16.066406 -5.265625 -20.867188 C -5.390625 -21.039062 -5.5625 -21.132812 -5.746094 -21.132812 C -6.058594 -21.132812 -6.304688 -20.882812 -6.304688 -20.574219 Z M -35.027344 -32.890625 C -35.027344 -32.953125 -34.996094 -32.96875 -34.949219 -32.96875 C -33.773438 -32.96875 -19.753906 -19.257812 -13.988281 -13.339844 C -24.339844 -21.441406 -35.027344 -31.355469 -35.027344 -32.890625 Z M -1.039062 1.316406 C -1.039062 1.394531 -1.054688 1.472656 -1.175781 1.472656 C -3.113281 1.472656 -6.816406 -3.019531 -6.816406 -5.59375 L -6.816406 -5.746094 C -3.113281 -1.703125 -1.039062 0.867188 -1.039062 1.316406 Z M -1.039062 1.316406 "/></g></g></g><g fill="#2b2b2b" fill-opacity="1"><g transform="translate(114.506577, 231.913697)"><g><path d="M 7.714844 -0.898438 C 7.714844 -5.191406 -0.203125 -17.414062 -5.28125 -24.414062 C -5.375 -24.554688 -5.546875 -24.648438 -5.730469 -24.648438 C -6.042969 -24.648438 -6.289062 -24.398438 -6.289062 -24.089844 C -6.289062 -23.964844 -6.257812 -23.859375 -6.179688 -23.765625 C -1.132812 -16.777344 6.601562 -4.847656 6.601562 -0.898438 C 6.601562 -0.203125 6.382812 0.03125 5.730469 0.03125 C 3.75 0.03125 0.308594 -3.46875 -3.082031 -6.910156 C -6.074219 -9.945312 -9.046875 -12.96875 -10.8125 -12.96875 C -11.480469 -12.96875 -12.007812 -12.363281 -12.703125 -11.589844 C -12.890625 -11.355469 -13.105469 -11.109375 -13.339844 -10.875 C -16.421875 -13.757812 -18.792969 -15.460938 -19.753906 -15.460938 C -20.371094 -15.460938 -20.742188 -15.105469 -20.742188 -14.5 C -20.742188 -12.238281 -16.949219 -7.296875 -15.183594 -7.296875 C -14.578125 -7.296875 -14.082031 -7.761719 -13.136719 -9.1875 C -10.71875 -6.863281 -8.132812 -4.027344 -6.179688 -1.253906 C -6.074219 -1.101562 -5.902344 -1.007812 -5.714844 -1.007812 C -5.40625 -1.007812 -5.160156 -1.253906 -5.160156 -1.566406 C -5.160156 -1.6875 -5.191406 -1.796875 -5.265625 -1.890625 C -7.0625 -4.429688 -9.867188 -7.511719 -12.53125 -10.101562 C -11.679688 -11.371094 -11.214844 -11.851562 -10.8125 -11.851562 C -9.527344 -11.851562 -6.863281 -9.15625 -3.871094 -6.121094 C -0.480469 -2.679688 3.285156 1.144531 5.730469 1.144531 C 7.003906 1.144531 7.714844 0.417969 7.714844 -0.898438 Z M -13.957031 -9.945312 C -14.625 -8.953125 -15.074219 -8.414062 -15.183594 -8.414062 C -16.1875 -8.414062 -19.210938 -12.347656 -19.550781 -13.957031 C -19.582031 -14.160156 -19.503906 -14.285156 -19.320312 -14.222656 C -18.3125 -13.804688 -15.523438 -11.417969 -13.957031 -9.945312 Z M -13.957031 -9.945312 "/></g></g></g><g fill="#2b2b2b" fill-opacity="1"><g transform="translate(114.506577, 209.421537)"><g><path d="M -6.289062 -22.0625 C -6.289062 -21.9375 -6.257812 -21.828125 -6.179688 -21.734375 C -3.238281 -17.800781 -0.914062 -11.617188 -0.914062 -9.449219 C -0.914062 -8.335938 -1.238281 -7.886719 -2.03125 -7.886719 C -3.332031 -7.886719 -4.941406 -8.984375 -6.121094 -9.804688 C -6.832031 -10.300781 -7.296875 -10.613281 -7.652344 -10.613281 C -8.023438 -10.613281 -8.304688 -10.316406 -8.304688 -9.945312 C -8.304688 -9.605469 -7.976562 -9.078125 -6.707031 -7.328125 C -7.390625 -6.910156 -7.667969 -6.351562 -7.667969 -5.359375 C -7.667969 -2.914062 -3.640625 3.53125 -1.175781 3.53125 C -0.417969 3.53125 0.078125 2.972656 0.078125 2.121094 C 0.078125 0.109375 -3.160156 -4.324219 -5.296875 -7.28125 C -5.453125 -7.5 -5.609375 -7.714844 -5.761719 -7.917969 C -5.949219 -8.164062 -5.839844 -8.273438 -5.578125 -8.117188 C -4.460938 -7.421875 -3.207031 -6.769531 -2.03125 -6.769531 C -0.589844 -6.769531 0.203125 -7.714844 0.203125 -9.449219 C 0.203125 -11.960938 -2.464844 -18.449219 -5.265625 -22.371094 C -5.375 -22.527344 -5.546875 -22.617188 -5.730469 -22.617188 C -6.027344 -22.617188 -6.289062 -22.355469 -6.289062 -22.0625 Z M -6.058594 -6.414062 C -3.238281 -2.523438 -1.039062 0.636719 -1.039062 2.121094 C -1.039062 2.308594 -1.117188 2.417969 -1.300781 2.417969 C -2.742188 2.417969 -6.554688 -3.050781 -6.554688 -5.359375 C -6.554688 -5.996094 -6.460938 -6.179688 -6.058594 -6.414062 Z M -6.058594 -6.414062 "/></g></g></g><g fill="#2b2b2b" fill-opacity="1"><g transform="translate(114.506577, 188.943137)"><g><path d="M -9.667969 -4.925781 C -9.667969 -5.082031 -9.730469 -5.234375 -9.851562 -5.328125 L -10.210938 -5.6875 C -10.347656 -5.808594 -10.472656 -5.949219 -10.597656 -6.058594 C -10.703125 -6.164062 -10.84375 -6.210938 -10.984375 -6.210938 C -11.292969 -6.210938 -11.542969 -5.964844 -11.542969 -5.65625 C -11.542969 -5.5 -11.480469 -5.359375 -11.371094 -5.25 C -11.246094 -5.144531 -11.125 -5.019531 -10.984375 -4.878906 C -10.84375 -4.757812 -10.703125 -4.617188 -10.597656 -4.523438 C -10.503906 -4.414062 -10.363281 -4.367188 -10.226562 -4.367188 C -9.914062 -4.367188 -9.667969 -4.617188 -9.667969 -4.925781 Z M -6.136719 -11.804688 C -6.136719 -11.679688 -6.089844 -11.558594 -6.011719 -11.449219 C -4.710938 -9.820312 -1.550781 -4.925781 2.324219 1.117188 L 6.414062 7.453125 C 1.59375 3.175781 -2.089844 0.308594 -5.6875 -2.417969 C -5.777344 -2.480469 -5.902344 -2.523438 -6.027344 -2.523438 C -6.335938 -2.523438 -6.585938 -2.277344 -6.585938 -1.96875 C -6.585938 -1.796875 -6.507812 -1.625 -6.351562 -1.519531 C -2.03125 1.75 2.386719 5.222656 8.769531 11.078125 L 9.746094 12.5625 C 20.308594 28.644531 25.113281 34.824219 27.09375 34.824219 C 28.132812 34.824219 28.816406 34.082031 28.816406 32.984375 C 28.816406 30.316406 25.71875 25.980469 19.226562 19.550781 C 15.585938 15.941406 12.425781 12.921875 9.652344 10.378906 C 7.4375 6.988281 5.25 3.609375 3.269531 0.511719 C -0.621094 -5.53125 -3.796875 -10.472656 -5.144531 -12.144531 C -5.25 -12.285156 -5.40625 -12.363281 -5.578125 -12.363281 C -5.886719 -12.363281 -6.136719 -12.113281 -6.136719 -11.804688 Z M 18.449219 20.355469 C 24.601562 26.445312 27.699219 30.691406 27.699219 32.984375 C 27.699219 33.476562 27.5 33.710938 27.09375 33.710938 C 25.792969 33.710938 20.726562 27.109375 12.269531 14.34375 C 14.222656 16.203125 16.28125 18.1875 18.449219 20.355469 Z M 18.449219 20.355469 "/></g></g></g><g fill="#2b2b2b" fill-opacity="1"><g transform="translate(114.506577, 178.595505)"><g><path d="M -6.210938 -20.992188 C -6.210938 -20.867188 -6.164062 -20.757812 -6.089844 -20.652344 C -3.859375 -17.507812 -1.101562 -13.324219 2.167969 -7.792969 C -2.183594 -10.796875 -6.136719 -12.6875 -7.234375 -12.6875 C -7.902344 -12.6875 -8.304688 -12.332031 -8.304688 -11.742188 C -8.304688 -11.199219 -7.777344 -10.394531 -5.5 -7.375 C -3.253906 -4.414062 -0.542969 -0.820312 -0.542969 0.636719 C -0.542969 0.851562 -0.605469 0.929688 -0.804688 0.929688 C -1.71875 0.929688 -5.792969 -2.136719 -7.511719 -4.183594 C -7.636719 -4.308594 -7.777344 -4.367188 -7.933594 -4.367188 C -8.226562 -4.367188 -8.488281 -4.105469 -8.488281 -3.8125 C -8.488281 -3.671875 -8.441406 -3.546875 -8.367188 -3.453125 C -6.769531 -1.566406 -2.277344 2.046875 -0.710938 2.046875 C 0.0625 2.046875 0.574219 1.488281 0.574219 0.636719 C 0.574219 -1.191406 -2.371094 -5.082031 -4.601562 -8.054688 C -6.058594 -9.976562 -6.769531 -10.890625 -6.972656 -11.261719 C -7.050781 -11.402344 -7.050781 -11.574219 -6.832031 -11.527344 C -4.816406 -11.015625 0.636719 -7.636719 3.59375 -5.390625 L 3.886719 -4.910156 C 5.980469 -1.378906 8.195312 2.355469 10.410156 5.964844 C 18.898438 19.753906 23.890625 25.65625 27.09375 25.65625 C 28.132812 25.65625 28.816406 24.910156 28.816406 23.8125 C 28.816406 19.054688 18.078125 5.917969 8.085938 -3.128906 C 6.925781 -4.199219 5.6875 -5.222656 4.460938 -6.136719 C 0.589844 -12.65625 -3.191406 -18.28125 -5.222656 -21.332031 C -5.296875 -21.457031 -5.484375 -21.550781 -5.65625 -21.550781 C -5.949219 -21.550781 -6.210938 -21.285156 -6.210938 -20.992188 Z M 7.34375 -2.324219 C 18.046875 7.40625 27.699219 19.800781 27.699219 23.8125 C 27.699219 24.308594 27.5 24.539062 27.09375 24.539062 C 24.429688 24.539062 19.335938 18.359375 11.371094 5.375 C 9.574219 2.480469 7.808594 -0.511719 6.074219 -3.421875 C 6.492188 -3.066406 6.925781 -2.695312 7.34375 -2.324219 Z M 7.34375 -2.324219 "/></g></g></g><g fill="#2b2b2b" fill-opacity="1"><g transform="translate(114.506577, 159.077516)"><g><path d="M -6.289062 -16.746094 C -6.289062 -16.636719 -6.257812 -16.546875 -6.195312 -16.46875 C -4.351562 -13.199219 -4.585938 -8.398438 -6.753906 -4.632812 C -6.753906 -4.632812 -6.769531 -4.648438 -6.769531 -4.664062 C -6.800781 -4.726562 -6.816406 -4.785156 -6.832031 -4.847656 C -6.910156 -5.082031 -7.125 -5.234375 -7.375 -5.234375 C -7.667969 -5.234375 -7.933594 -4.972656 -7.933594 -4.679688 C -7.933594 -4.632812 -7.917969 -4.554688 -7.902344 -4.492188 C -7.777344 -4.136719 -7.652344 -3.796875 -7.5 -3.484375 C -7.484375 -3.453125 -7.484375 -3.421875 -7.5 -3.363281 C -7.589844 -2.988281 -7.390625 -2.585938 -7.019531 -2.480469 C -6.972656 -2.449219 -6.957031 -2.433594 -6.925781 -2.402344 C -5.390625 0.15625 -2.988281 1.921875 -1.039062 1.921875 C 0.03125 1.921875 0.742188 1.332031 0.742188 0.433594 C 0.742188 -1.8125 -3.050781 -4.136719 -5.964844 -3.75 C -3.4375 -7.902344 -3.128906 -13.324219 -5.234375 -17.011719 C -5.34375 -17.195312 -5.53125 -17.304688 -5.730469 -17.304688 C -6.027344 -17.304688 -6.289062 -17.042969 -6.289062 -16.746094 Z M -0.371094 0.433594 C -0.371094 0.683594 -0.574219 0.804688 -1.039062 0.804688 C -2.507812 0.804688 -4.445312 -0.605469 -5.777344 -2.648438 C -3.546875 -2.898438 -0.371094 -1.085938 -0.371094 0.433594 Z M -0.371094 0.433594 "/></g></g></g><g fill="#2b2b2b" fill-opacity="1"><g transform="translate(114.506577, 143.912344)"><g><path d="M -16.359375 -28.519531 C -16.59375 -22.851562 -16.578125 -16.980469 -16.375 -11.246094 C -20.699219 -14.980469 -24.878906 -18.730469 -28.878906 -22.386719 C -28.96875 -22.496094 -29.109375 -22.539062 -29.25 -22.539062 C -29.558594 -22.539062 -29.808594 -22.292969 -29.808594 -21.984375 C -29.808594 -21.828125 -29.746094 -21.671875 -29.621094 -21.582031 C -25.128906 -17.429688 -20.683594 -13.476562 -16.3125 -9.730469 C -16.050781 -3.5 -15.554688 2.585938 -14.855469 8.070312 C -14.824219 8.351562 -14.578125 8.566406 -14.300781 8.566406 C -13.988281 8.566406 -13.742188 8.320312 -13.742188 8.007812 L -13.742188 7.933594 C -14.40625 2.804688 -14.886719 -2.882812 -15.152344 -8.753906 C -4.878906 -0.03125 6.042969 8.414062 16.5625 15.058594 C 16.746094 15.183594 16.949219 15.289062 17.117188 15.351562 L 17.132812 15.351562 C 17.644531 15.523438 17.972656 15.320312 17.972656 14.824219 C 17.972656 14.46875 17.550781 14.019531 16.777344 13.554688 C 16.546875 13.429688 16.328125 13.402344 16.1875 13.492188 C 5.746094 6.800781 -5.066406 -1.609375 -15.214844 -10.269531 C -15.476562 -16.453125 -15.476562 -22.648438 -15.246094 -28.472656 L -15.246094 -28.503906 C -15.246094 -28.816406 -15.492188 -29.0625 -15.800781 -29.0625 C -16.097656 -29.0625 -16.34375 -28.832031 -16.359375 -28.519531 Z M -16.359375 -28.519531 "/></g></g></g><g fill="#2b2b2b" fill-opacity="1"><g transform="translate(114.506577, 133.440783)"><g><path d="M -8.863281 -5.082031 C -8.863281 -5.25 -8.9375 -5.421875 -9.078125 -5.53125 C -9.15625 -5.578125 -9.265625 -5.671875 -9.402344 -5.761719 C -9.699219 -5.996094 -10.085938 -6.273438 -10.242188 -6.414062 C -10.347656 -6.492188 -10.472656 -6.539062 -10.597656 -6.539062 C -10.90625 -6.539062 -11.152344 -6.289062 -11.152344 -5.980469 C -11.152344 -5.808594 -11.078125 -5.65625 -10.953125 -5.546875 L -9.761719 -4.648438 C -9.667969 -4.570312 -9.542969 -4.523438 -9.417969 -4.523438 C -9.109375 -4.523438 -8.863281 -4.773438 -8.863281 -5.082031 Z M 0.558594 -0.589844 C 0.558594 -2.945312 -2.882812 -10.378906 -5.25 -14.128906 C -5.34375 -14.285156 -5.546875 -14.390625 -5.730469 -14.390625 C -6.027344 -14.390625 -6.289062 -14.128906 -6.289062 -13.835938 C -6.289062 -13.742188 -6.257812 -13.648438 -6.210938 -13.539062 C -3.871094 -9.835938 -0.558594 -2.695312 -0.558594 -0.589844 C -0.558594 0.109375 -0.804688 0.371094 -1.410156 0.371094 C -2.355469 0.371094 -4.664062 -1.253906 -7.09375 -3.625 L -7.109375 -3.640625 C -7.21875 -3.734375 -7.34375 -3.78125 -7.484375 -3.78125 C -7.777344 -3.78125 -8.039062 -3.515625 -8.039062 -3.222656 C -8.039062 -3.066406 -7.976562 -2.929688 -7.871094 -2.820312 C -5.050781 -0.09375 -2.695312 1.488281 -1.410156 1.488281 C -0.171875 1.488281 0.558594 0.710938 0.558594 -0.589844 Z M 0.558594 -0.589844 "/></g></g></g></svg>